Dexter Reed, a high-schooler, is forced to get a summer job at a fast food restaurant called Good Burger after causing a car wreck by his school teacher Mr. Wheat. So Dexter must pay off his teacher's car by working very hard at Good Burger. Meanwhile things turned worse when Mondo Burger, a mammoth fast-food chain opens across the street, it looks like Good Burger is soon going to be history for good! Now it is up to Dexter and his new friend Ed the not-so bright cashier to save the day, as they develop a delicious special secret sauce that Ed created brings hundreds of new customers to their door and makes their new competition desperate to steal the recipe and all of their customers.


Format                           : AVI
Format/Info                      : Audio Video Interleave
File size                        : 700 MiB
Duration                         : 1h 35mn
Overall bit rate                 : 1 027 Kbps
Writing application              : VirtualDubMod 1.5.4.1 (build 2178/release)
Writing library                  : VirtualDubMod build 2178/release

Video

Format                           : MPEG-4 Visual
Format profile                   : Advanced Simple@L5
Format settings, BVOP            : 1
Format settings, QPel            : No
Format settings, GMC             : No warppoints
Format settings, Matrix          : Custom
Codec ID                         : XVID
Codec ID/Hint                    : XviD
Duration                         : 1h 35mn
Bit rate                         : 892 Kbps
Width                            : 608 pixels
Height                           : 336 pixels
Display aspect ratio             : 16:9
Frame rate                       : 23.976 fps
Color space                      : YUV
Chroma subsampling               : 4:2:0
Bit depth                        : 8 bits
Scan type                        : Progressive
Compression mode                 : Lossy
Bits/(Pixel*Frame)               : 0.182
Stream size                      : 608 MiB (87%)
Writing library                  : XviD 1.2.1 (UTC 2008-12-04)

Audio

Format                           : MPEG Audio
Format version                   : Version 1
Format profile                   : Layer 3
Codec ID                         : 55
Codec ID/Hint                    : MP3
Duration                         : 1h 35mn
Bit rate mode                    : Constant
Bit rate                         : 128 Kbps
Channel(s)                       : 2 channels
Sampling rate                    : 48.0 KHz
Compression mode                 : Lossy
Stream size                      : 87.3 MiB (12%)
Alignment                        : Aligned on interleaves
Interleave, duration             : 83 ms (2.00 video frames)
Interleave, preload duration     : 504 ms
Writing library                  : LAMELAME_MAJOR_VERSI

Please seed & thank you for downloading, comments are appreciated.